<?xml version="1.0" encoding="UTF-8" standalone="no"?>
<!DOCTYPE svg PUBLIC "-//W3C//DTD SVG 1.1//EN"
 "http://www.w3.org/Graphics/SVG/1.1/DTD/svg11.dtd">
<!-- Generated by graphviz version 3.0.0 (20220226.1711)
 -->
<!-- Title: Tree Pages: 1 -->
<svg width="6399pt" height="627pt"
 viewBox="0.00 0.00 6398.50 627.00" xmlns="http://www.w3.org/2000/svg" xmlns:xlink="http://www.w3.org/1999/xlink">
<g id="graph0" class="graph" transform="scale(1 1) rotate(0) translate(4 623)">
<title>Tree</title>
<polygon fill="white" stroke="transparent" points="-4,4 -4,-623 6394.5,-623 6394.5,4 -4,4"/>
<!-- 0 -->
<g id="node1" class="node">
<title>0</title>
<path fill="#fefffe" stroke="black" d="M3418,-619C3418,-619 3015,-619 3015,-619 3009,-619 3003,-613 3003,-607 3003,-607 3003,-533 3003,-533 3003,-527 3009,-521 3015,-521 3015,-521 3418,-521 3418,-521 3424,-521 3430,-527 3430,-533 3430,-533 3430,-607 3430,-607 3430,-613 3424,-619 3418,-619"/>
<text text-anchor="middle" x="3216.5" y="-603.8" font-family="Helvetica,sans-Serif" font-size="14.00">DayofMonth &lt;= 4.372</text>
<text text-anchor="middle" x="3216.5" y="-588.8" font-family="Helvetica,sans-Serif" font-size="14.00">entropy = 2.492</text>
<text text-anchor="middle" x="3216.5" y="-573.8" font-family="Helvetica,sans-Serif" font-size="14.00">samples = 289142</text>
<text text-anchor="middle" x="3216.5" y="-558.8" font-family="Helvetica,sans-Serif" font-size="14.00">value = [187, 1978, 18669, 94232, 92828, 29748, 24828, 11260</text>
<text text-anchor="middle" x="3216.5" y="-543.8" font-family="Helvetica,sans-Serif" font-size="14.00">4842, 2732, 7838]</text>
<text text-anchor="middle" x="3216.5" y="-528.8" font-family="Helvetica,sans-Serif" font-size="14.00">class = {&#45;30, &#45;15}</text>
</g>
<!-- 1 -->
<g id="node2" class="node">
<title>1</title>
<path fill="#f7fef8" stroke="black" d="M2628,-485C2628,-485 2233,-485 2233,-485 2227,-485 2221,-479 2221,-473 2221,-473 2221,-399 2221,-399 2221,-393 2227,-387 2233,-387 2233,-387 2628,-387 2628,-387 2634,-387 2640,-393 2640,-399 2640,-399 2640,-473 2640,-473 2640,-479 2634,-485 2628,-485"/>
<text text-anchor="middle" x="2430.5" y="-469.8" font-family="Helvetica,sans-Serif" font-size="14.00">CRSElapsedTime &lt;= 175.5</text>
<text text-anchor="middle" x="2430.5" y="-454.8" font-family="Helvetica,sans-Serif" font-size="14.00">entropy = 2.413</text>
<text text-anchor="middle" x="2430.5" y="-439.8" font-family="Helvetica,sans-Serif" font-size="14.00">samples = 225688</text>
<text text-anchor="middle" x="2430.5" y="-424.8" font-family="Helvetica,sans-Serif" font-size="14.00">value = [158, 1727, 16356, 78842, 72973, 21355, 17638, 7336</text>
<text text-anchor="middle" x="2430.5" y="-409.8" font-family="Helvetica,sans-Serif" font-size="14.00">3011, 1690, 4602]</text>
<text text-anchor="middle" x="2430.5" y="-394.8" font-family="Helvetica,sans-Serif" font-size="14.00">class = {&#45;30, &#45;15}</text>
</g>
<!-- 0&#45;&gt;1 -->
<g id="edge1" class="edge">
<title>0&#45;&gt;1</title>
<path fill="none" stroke="black" d="M3002.76,-533.1C2893.32,-514.73 2760.29,-492.38 2650.04,-473.87"/>
<polygon fill="black" stroke="black" points="2650.56,-470.41 2640.12,-472.2 2649.4,-477.31 2650.56,-470.41"/>
<text text-anchor="middle" x="2654.62" y="-488.86" font-family="Helvetica,sans-Serif" font-size="14.00">True</text>
</g>
<!-- 16 -->
<g id="node17" class="node">
<title>16</title>
<path fill="#edfdf6" stroke="black" d="M4213.5,-485C4213.5,-485 3819.5,-485 3819.5,-485 3813.5,-485 3807.5,-479 3807.5,-473 3807.5,-473 3807.5,-399 3807.5,-399 3807.5,-393 3813.5,-387 3819.5,-387 3819.5,-387 4213.5,-387 4213.5,-387 4219.5,-387 4225.5,-393 4225.5,-399 4225.5,-399 4225.5,-473 4225.5,-473 4225.5,-479 4219.5,-485 4213.5,-485"/>
<text text-anchor="middle" x="4016.5" y="-469.8" font-family="Helvetica,sans-Serif" font-size="14.00">Tail_Number &lt;= 4.097</text>
<text text-anchor="middle" x="4016.5" y="-454.8" font-family="Helvetica,sans-Serif" font-size="14.00">entropy = 2.685</text>
<text text-anchor="middle" x="4016.5" y="-439.8" font-family="Helvetica,sans-Serif" font-size="14.00">samples = 63454</text>
<text text-anchor="middle" x="4016.5" y="-424.8" font-family="Helvetica,sans-Serif" font-size="14.00">value = [29, 251, 2313, 15390, 19855, 8393, 7190, 3924, 1831</text>
<text text-anchor="middle" x="4016.5" y="-409.8" font-family="Helvetica,sans-Serif" font-size="14.00">1042, 3236]</text>
<text text-anchor="middle" x="4016.5" y="-394.8" font-family="Helvetica,sans-Serif" font-size="14.00">class = {&#45;15, &#45;3}</text>
</g>
<!-- 0&#45;&gt;16 -->
<g id="edge16" class="edge">
<title>0&#45;&gt;16</title>
<path fill="none" stroke="black" d="M3430.08,-522.72C3433.24,-522.14 3436.38,-521.56 3439.5,-521 3557.24,-499.78 3689.25,-480.25 3797.25,-465.37"/>
<polygon fill="black" stroke="black" points="3797.86,-468.82 3807.3,-463.99 3796.91,-461.89 3797.86,-468.82"/>
<text text-anchor="middle" x="3792.19" y="-480.21" font-family="Helvetica,sans-Serif" font-size="14.00">False</text>
</g>
<!-- 2 -->
<g id="node3" class="node">
<title>2</title>
<path fill="#f8fef9" stroke="black" d="M1429.5,-351C1429.5,-351 1027.5,-351 1027.5,-351 1021.5,-351 1015.5,-345 1015.5,-339 1015.5,-339 1015.5,-265 1015.5,-265 1015.5,-259 1021.5,-253 1027.5,-253 1027.5,-253 1429.5,-253 1429.5,-253 1435.5,-253 1441.5,-259 1441.5,-265 1441.5,-265 1441.5,-339 1441.5,-339 1441.5,-345 1435.5,-351 1429.5,-351"/>
<text text-anchor="middle" x="1228.5" y="-335.8" font-family="Helvetica,sans-Serif" font-size="14.00">Tail_Number &lt;= 4.271</text>
<text text-anchor="middle" x="1228.5" y="-320.8" font-family="Helvetica,sans-Serif" font-size="14.00">entropy = 2.314</text>
<text text-anchor="middle" x="1228.5" y="-305.8" font-family="Helvetica,sans-Serif" font-size="14.00">samples = 172734</text>
<text text-anchor="middle" x="1228.5" y="-290.8" font-family="Helvetica,sans-Serif" font-size="14.00">value = [5, 466, 9699, 62662, 58830, 16177, 12564, 5242, 2207</text>
<text text-anchor="middle" x="1228.5" y="-275.8" font-family="Helvetica,sans-Serif" font-size="14.00">1280, 3602]</text>
<text text-anchor="middle" x="1228.5" y="-260.8" font-family="Helvetica,sans-Serif" font-size="14.00">class = {&#45;30, &#45;15}</text>
</g>
<!-- 1&#45;&gt;2 -->
<g id="edge2" class="edge">
<title>1&#45;&gt;2</title>
<path fill="none" stroke="black" d="M2220.78,-411.97C2005.52,-388.33 1671.79,-351.68 1451.73,-327.51"/>
<polygon fill="black" stroke="black" points="1451.98,-324.02 1441.66,-326.41 1451.22,-330.98 1451.98,-324.02"/>
</g>
<!-- 9 -->
<g id="node10" class="node">
<title>9</title>
<path fill="#f5fef5" stroke="black" d="M2631.5,-351C2631.5,-351 2229.5,-351 2229.5,-351 2223.5,-351 2217.5,-345 2217.5,-339 2217.5,-339 2217.5,-265 2217.5,-265 2217.5,-259 2223.5,-253 2229.5,-253 2229.5,-253 2631.5,-253 2631.5,-253 2637.5,-253 2643.5,-259 2643.5,-265 2643.5,-265 2643.5,-339 2643.5,-339 2643.5,-345 2637.5,-351 2631.5,-351"/>
<text text-anchor="middle" x="2430.5" y="-335.8" font-family="Helvetica,sans-Serif" font-size="14.00">OriginAirportID &lt;= 4.032</text>
<text text-anchor="middle" x="2430.5" y="-320.8" font-family="Helvetica,sans-Serif" font-size="14.00">entropy = 2.651</text>
<text text-anchor="middle" x="2430.5" y="-305.8" font-family="Helvetica,sans-Serif" font-size="14.00">samples = 52954</text>
<text text-anchor="middle" x="2430.5" y="-290.8" font-family="Helvetica,sans-Serif" font-size="14.00">value = [153, 1261, 6657, 16180, 14143, 5178, 5074, 2094, 804</text>
<text text-anchor="middle" x="2430.5" y="-275.8" font-family="Helvetica,sans-Serif" font-size="14.00">410, 1000]</text>
<text text-anchor="middle" x="2430.5" y="-260.8" font-family="Helvetica,sans-Serif" font-size="14.00">class = {&#45;30, &#45;15}</text>
</g>
<!-- 1&#45;&gt;9 -->
<g id="edge9" class="edge">
<title>1&#45;&gt;9</title>
<path fill="none" stroke="black" d="M2430.5,-386.97C2430.5,-378.69 2430.5,-370 2430.5,-361.48"/>
<polygon fill="black" stroke="black" points="2434,-361.21 2430.5,-351.21 2427,-361.21 2434,-361.21"/>
</g>
<!-- 3 -->
<g id="node4" class="node">
<title>3</title>
<path fill="#edfded" stroke="black" d="M798.5,-217C798.5,-217 412.5,-217 412.5,-217 406.5,-217 400.5,-211 400.5,-205 400.5,-205 400.5,-131 400.5,-131 400.5,-125 406.5,-119 412.5,-119 412.5,-119 798.5,-119 798.5,-119 804.5,-119 810.5,-125 810.5,-131 810.5,-131 810.5,-205 810.5,-205 810.5,-211 804.5,-217 798.5,-217"/>
<text text-anchor="middle" x="605.5" y="-201.8" font-family="Helvetica,sans-Serif" font-size="14.00">OriginAirportID &lt;= 3.746</text>
<text text-anchor="middle" x="605.5" y="-186.8" font-family="Helvetica,sans-Serif" font-size="14.00">entropy = 2.196</text>
<text text-anchor="middle" x="605.5" y="-171.8" font-family="Helvetica,sans-Serif" font-size="14.00">samples = 110798</text>
<text text-anchor="middle" x="605.5" y="-156.8" font-family="Helvetica,sans-Serif" font-size="14.00">value = [4, 342, 7249, 44230, 37391, 9180, 6741, 2564, 1018</text>
<text text-anchor="middle" x="605.5" y="-141.8" font-family="Helvetica,sans-Serif" font-size="14.00">518, 1561]</text>
<text text-anchor="middle" x="605.5" y="-126.8" font-family="Helvetica,sans-Serif" font-size="14.00">class = {&#45;30, &#45;15}</text>
</g>
<!-- 2&#45;&gt;3 -->
<g id="edge3" class="edge">
<title>2&#45;&gt;3</title>
<path fill="none" stroke="black" d="M1015.41,-255.85C952.52,-242.53 883.68,-227.94 820.67,-214.59"/>
<polygon fill="black" stroke="black" points="821.12,-211.11 810.61,-212.46 819.67,-217.95 821.12,-211.11"/>
</g>
<!-- 6 -->
<g id="node7" class="node">
<title>6</title>
<path fill="#f1fdf8" stroke="black" d="M1421.5,-217C1421.5,-217 1035.5,-217 1035.5,-217 1029.5,-217 1023.5,-211 1023.5,-205 1023.5,-205 1023.5,-131 1023.5,-131 1023.5,-125 1029.5,-119 1035.5,-119 1035.5,-119 1421.5,-119 1421.5,-119 1427.5,-119 1433.5,-125 1433.5,-131 1433.5,-131 1433.5,-205 1433.5,-205 1433.5,-211 1427.5,-217 1421.5,-217"/>
<text text-anchor="middle" x="1228.5" y="-201.8" font-family="Helvetica,sans-Serif" font-size="14.00">DestAirportID &lt;= 4.646</text>
<text text-anchor="middle" x="1228.5" y="-186.8" font-family="Helvetica,sans-Serif" font-size="14.00">entropy = 2.475</text>
<text text-anchor="middle" x="1228.5" y="-171.8" font-family="Helvetica,sans-Serif" font-size="14.00">samples = 61936</text>
<text text-anchor="middle" x="1228.5" y="-156.8" font-family="Helvetica,sans-Serif" font-size="14.00">value = [1, 124, 2450, 18432, 21439, 6997, 5823, 2678, 1189</text>
<text text-anchor="middle" x="1228.5" y="-141.8" font-family="Helvetica,sans-Serif" font-size="14.00">762, 2041]</text>
<text text-anchor="middle" x="1228.5" y="-126.8" font-family="Helvetica,sans-Serif" font-size="14.00">class = {&#45;15, &#45;3}</text>
</g>
<!-- 2&#45;&gt;6 -->
<g id="edge6" class="edge">
<title>2&#45;&gt;6</title>
<path fill="none" stroke="black" d="M1228.5,-252.97C1228.5,-244.69 1228.5,-236 1228.5,-227.48"/>
<polygon fill="black" stroke="black" points="1232,-227.21 1228.5,-217.21 1225,-227.21 1232,-227.21"/>
</g>
<!-- 4 -->
<g id="node5" class="node">
<title>4</title>
<path fill="#c9f8cb" stroke="black" d="M375,-75.5C375,-75.5 12,-75.5 12,-75.5 6,-75.5 0,-69.5 0,-63.5 0,-63.5 0,-19.5 0,-19.5 0,-13.5 6,-7.5 12,-7.5 12,-7.5 375,-7.5 375,-7.5 381,-7.5 387,-13.5 387,-19.5 387,-19.5 387,-63.5 387,-63.5 387,-69.5 381,-75.5 375,-75.5"/>
<text text-anchor="middle" x="193.5" y="-60.3" font-family="Helvetica,sans-Serif" font-size="14.00">entropy = 2.173</text>
<text text-anchor="middle" x="193.5" y="-45.3" font-family="Helvetica,sans-Serif" font-size="14.00">samples = 4774</text>
<text text-anchor="middle" x="193.5" y="-30.3" font-family="Helvetica,sans-Serif" font-size="14.00">value = [3, 151, 1150, 2140, 851, 183, 131, 57, 30, 11, 67]</text>
<text text-anchor="middle" x="193.5" y="-15.3" font-family="Helvetica,sans-Serif" font-size="14.00">class = {&#45;30, &#45;15}</text>
</g>
<!-- 3&#45;&gt;4 -->
<g id="edge4" class="edge">
<title>3&#45;&gt;4</title>
<path fill="none" stroke="black" d="M446.5,-118.95C401.94,-105.49 354.28,-91.09 312.48,-78.45"/>
<polygon fill="black" stroke="black" points="313.41,-75.08 302.82,-75.54 311.38,-81.78 313.41,-75.08"/>
</g>
<!-- 5 -->
<g id="node6" class="node">
<title>5</title>
<path fill="#effdf0" stroke="black" d="M794,-83C794,-83 417,-83 417,-83 411,-83 405,-77 405,-71 405,-71 405,-12 405,-12 405,-6 411,0 417,0 417,0 794,0 794,0 800,0 806,-6 806,-12 806,-12 806,-71 806,-71 806,-77 800,-83 794,-83"/>
<text text-anchor="middle" x="605.5" y="-67.8" font-family="Helvetica,sans-Serif" font-size="14.00">entropy = 2.178</text>
<text text-anchor="middle" x="605.5" y="-52.8" font-family="Helvetica,sans-Serif" font-size="14.00">samples = 106024</text>
<text text-anchor="middle" x="605.5" y="-37.8" font-family="Helvetica,sans-Serif" font-size="14.00">value = [1, 191, 6099, 42090, 36540, 8997, 6610, 2507, 988</text>
<text text-anchor="middle" x="605.5" y="-22.8" font-family="Helvetica,sans-Serif" font-size="14.00">507, 1494]</text>
<text text-anchor="middle" x="605.5" y="-7.8" font-family="Helvetica,sans-Serif" font-size="14.00">class = {&#45;30, &#45;15}</text>
</g>
<!-- 3&#45;&gt;5 -->
<g id="edge5" class="edge">
<title>3&#45;&gt;5</title>
<path fill="none" stroke="black" d="M605.5,-118.87C605.5,-110.5 605.5,-101.77 605.5,-93.33"/>
<polygon fill="black" stroke="black" points="609,-93.23 605.5,-83.23 602,-93.23 609,-93.23"/>
</g>
<!-- 7 -->
<g id="node8" class="node">
<title>7</title>
<path fill="#f0fdf8" stroke="black" d="M1205,-83C1205,-83 836,-83 836,-83 830,-83 824,-77 824,-71 824,-71 824,-12 824,-12 824,-6 830,0 836,0 836,0 1205,0 1205,0 1211,0 1217,-6 1217,-12 1217,-12 1217,-71 1217,-71 1217,-77 1211,-83 1205,-83"/>
<text text-anchor="middle" x="1020.5" y="-67.8" font-family="Helvetica,sans-Serif" font-size="14.00">entropy = 2.417</text>
<text text-anchor="middle" x="1020.5" y="-52.8" font-family="Helvetica,sans-Serif" font-size="14.00">samples = 55247</text>
<text text-anchor="middle" x="1020.5" y="-37.8" font-family="Helvetica,sans-Serif" font-size="14.00">value = [1, 98, 2161, 16840, 19700, 6239, 4937, 2168, 888</text>
<text text-anchor="middle" x="1020.5" y="-22.8" font-family="Helvetica,sans-Serif" font-size="14.00">580, 1635]</text>
<text text-anchor="middle" x="1020.5" y="-7.8" font-family="Helvetica,sans-Serif" font-size="14.00">class = {&#45;15, &#45;3}</text>
</g>
<!-- 6&#45;&gt;7 -->
<g id="edge7" class="edge">
<title>6&#45;&gt;7</title>
<path fill="none" stroke="black" d="M1148.08,-118.87C1131.24,-108.78 1113.53,-98.18 1096.84,-88.19"/>
<polygon fill="black" stroke="black" points="1098.59,-85.17 1088.22,-83.03 1095,-91.17 1098.59,-85.17"/>
</g>
<!-- 8 -->
<g id="node9" class="node">
<title>8</title>
<path fill="#f9fefc" stroke="black" d="M1599.5,-83C1599.5,-83 1247.5,-83 1247.5,-83 1241.5,-83 1235.5,-77 1235.5,-71 1235.5,-71 1235.5,-12 1235.5,-12 1235.5,-6 1241.5,0 1247.5,0 1247.5,0 1599.5,0 1599.5,0 1605.5,0 1611.5,-6 1611.5,-12 1611.5,-12 1611.5,-71 1611.5,-71 1611.5,-77 1605.5,-83 1599.5,-83"/>
<text text-anchor="middle" x="1423.5" y="-67.8" font-family="Helvetica,sans-Serif" font-size="14.00">entropy = 2.839</text>
<text text-anchor="middle" x="1423.5" y="-52.8" font-family="Helvetica,sans-Serif" font-size="14.00">samples = 6689</text>
<text text-anchor="middle" x="1423.5" y="-37.8" font-family="Helvetica,sans-Serif" font-size="14.00">value = [0, 26, 289, 1592, 1739, 758, 886, 510, 301, 182</text>
<text text-anchor="middle" x="1423.5" y="-22.8" font-family="Helvetica,sans-Serif" font-size="14.00">406]</text>
<text text-anchor="middle" x="1423.5" y="-7.8" font-family="Helvetica,sans-Serif" font-size="14.00">class = {&#45;15, &#45;3}</text>
</g>
<!-- 6&#45;&gt;8 -->
<g id="edge8" class="edge">
<title>6&#45;&gt;8</title>
<path fill="none" stroke="black" d="M1303.89,-118.87C1319.54,-108.88 1335.98,-98.38 1351.5,-88.47"/>
<polygon fill="black" stroke="black" points="1353.47,-91.36 1360.02,-83.03 1349.7,-85.46 1353.47,-91.36"/>
</g>
<!-- 10 -->
<g id="node11" class="node">
<title>10</title>
<path fill="#e9fcea" stroke="black" d="M2411,-217C2411,-217 2018,-217 2018,-217 2012,-217 2006,-211 2006,-205 2006,-205 2006,-131 2006,-131 2006,-125 2012,-119 2018,-119 2018,-119 2411,-119 2411,-119 2417,-119 2423,-125 2423,-131 2423,-131 2423,-205 2423,-205 2423,-211 2417,-217 2411,-217"/>
<text text-anchor="middle" x="2214.5" y="-201.8" font-family="Helvetica,sans-Serif" font-size="14.00">CRSElapsedTime &lt;= 361.5</text>
<text text-anchor="middle" x="2214.5" y="-186.8" font-family="Helvetica,sans-Serif" font-size="14.00">entropy = 2.635</text>
<text text-anchor="middle" x="2214.5" y="-171.8" font-family="Helvetica,sans-Serif" font-size="14.00">samples = 15879</text>
<text text-anchor="middle" x="2214.5" y="-156.8" font-family="Helvetica,sans-Serif" font-size="14.00">value = [106, 690, 2737, 5149, 3781, 1274, 1110, 466, 216, 88</text>
<text text-anchor="middle" x="2214.5" y="-141.8" font-family="Helvetica,sans-Serif" font-size="14.00">262]</text>
<text text-anchor="middle" x="2214.5" y="-126.8" font-family="Helvetica,sans-Serif" font-size="14.00">class = {&#45;30, &#45;15}</text>
</g>
<!-- 9&#45;&gt;10 -->
<g id="edge10" class="edge">
<title>9&#45;&gt;10</title>
<path fill="none" stroke="black" d="M2351.91,-252.97C2335.68,-243.05 2318.49,-232.55 2301.97,-222.45"/>
<polygon fill="black" stroke="black" points="2303.75,-219.44 2293.4,-217.21 2300.1,-225.41 2303.75,-219.44"/>
</g>
<!-- 13 -->
<g id="node14" class="node">
<title>13</title>
<path fill="#fafefa" stroke="black" d="M2839.5,-217C2839.5,-217 2453.5,-217 2453.5,-217 2447.5,-217 2441.5,-211 2441.5,-205 2441.5,-205 2441.5,-131 2441.5,-131 2441.5,-125 2447.5,-119 2453.5,-119 2453.5,-119 2839.5,-119 2839.5,-119 2845.5,-119 2851.5,-125 2851.5,-131 2851.5,-131 2851.5,-205 2851.5,-205 2851.5,-211 2845.5,-217 2839.5,-217"/>
<text text-anchor="middle" x="2646.5" y="-201.8" font-family="Helvetica,sans-Serif" font-size="14.00">Tail_Number &lt;= 4.337</text>
<text text-anchor="middle" x="2646.5" y="-186.8" font-family="Helvetica,sans-Serif" font-size="14.00">entropy = 2.634</text>
<text text-anchor="middle" x="2646.5" y="-171.8" font-family="Helvetica,sans-Serif" font-size="14.00">samples = 37075</text>
<text text-anchor="middle" x="2646.5" y="-156.8" font-family="Helvetica,sans-Serif" font-size="14.00">value = [47, 571, 3920, 11031, 10362, 3904, 3964, 1628, 588</text>
<text text-anchor="middle" x="2646.5" y="-141.8" font-family="Helvetica,sans-Serif" font-size="14.00">322, 738]</text>
<text text-anchor="middle" x="2646.5" y="-126.8" font-family="Helvetica,sans-Serif" font-size="14.00">class = {&#45;30, &#45;15}</text>
</g>
<!-- 9&#45;&gt;13 -->
<g id="edge13" class="edge">
<title>9&#45;&gt;13</title>
<path fill="none" stroke="black" d="M2509.09,-252.97C2525.32,-243.05 2542.51,-232.55 2559.03,-222.45"/>
<polygon fill="black" stroke="black" points="2560.9,-225.41 2567.6,-217.21 2557.25,-219.44 2560.9,-225.41"/>
</g>
<!-- 11 -->
<g id="node12" class="node">
<title>11</title>
<path fill="#e8fce9" stroke="black" d="M2027,-83C2027,-83 1642,-83 1642,-83 1636,-83 1630,-77 1630,-71 1630,-71 1630,-12 1630,-12 1630,-6 1636,0 1642,0 1642,0 2027,0 2027,0 2033,0 2039,-6 2039,-12 2039,-12 2039,-71 2039,-71 2039,-77 2033,-83 2027,-83"/>
<text text-anchor="middle" x="1834.5" y="-67.8" font-family="Helvetica,sans-Serif" font-size="14.00">entropy = 2.591</text>
<text text-anchor="middle" x="1834.5" y="-52.8" font-family="Helvetica,sans-Serif" font-size="14.00">samples = 14680</text>
<text text-anchor="middle" x="1834.5" y="-37.8" font-family="Helvetica,sans-Serif" font-size="14.00">value = [43, 512, 2450, 4883, 3596, 1200, 1025, 439, 198, 85</text>
<text text-anchor="middle" x="1834.5" y="-22.8" font-family="Helvetica,sans-Serif" font-size="14.00">249]</text>
<text text-anchor="middle" x="1834.5" y="-7.8" font-family="Helvetica,sans-Serif" font-size="14.00">class = {&#45;30, &#45;15}</text>
</g>
<!-- 10&#45;&gt;11 -->
<g id="edge11" class="edge">
<title>10&#45;&gt;11</title>
<path fill="none" stroke="black" d="M2067.85,-118.95C2035.09,-108.22 2000.51,-96.89 1968.3,-86.34"/>
<polygon fill="black" stroke="black" points="1968.98,-82.88 1958.39,-83.09 1966.8,-89.53 1968.98,-82.88"/>
</g>
<!-- 12 -->
<g id="node13" class="node">
<title>12</title>
<path fill="#fcfefb" stroke="black" d="M2399.5,-75.5C2399.5,-75.5 2069.5,-75.5 2069.5,-75.5 2063.5,-75.5 2057.5,-69.5 2057.5,-63.5 2057.5,-63.5 2057.5,-19.5 2057.5,-19.5 2057.5,-13.5 2063.5,-7.5 2069.5,-7.5 2069.5,-7.5 2399.5,-7.5 2399.5,-7.5 2405.5,-7.5 2411.5,-13.5 2411.5,-19.5 2411.5,-19.5 2411.5,-63.5 2411.5,-63.5 2411.5,-69.5 2405.5,-75.5 2399.5,-75.5"/>
<text text-anchor="middle" x="2234.5" y="-60.3" font-family="Helvetica,sans-Serif" font-size="14.00">entropy = 2.849</text>
<text text-anchor="middle" x="2234.5" y="-45.3" font-family="Helvetica,sans-Serif" font-size="14.00">samples = 1199</text>
<text text-anchor="middle" x="2234.5" y="-30.3" font-family="Helvetica,sans-Serif" font-size="14.00">value = [63, 178, 287, 266, 185, 74, 85, 27, 18, 3, 13]</text>
<text text-anchor="middle" x="2234.5" y="-15.3" font-family="Helvetica,sans-Serif" font-size="14.00">class = {&#45;45, &#45;30}</text>
</g>
<!-- 10&#45;&gt;12 -->
<g id="edge12" class="edge">
<title>10&#45;&gt;12</title>
<path fill="none" stroke="black" d="M2222.23,-118.87C2223.98,-107.98 2225.83,-96.48 2227.54,-85.8"/>
<polygon fill="black" stroke="black" points="2231.01,-86.29 2229.14,-75.86 2224.1,-85.18 2231.01,-86.29"/>
</g>
<!-- 14 -->
<g id="node15" class="node">
<title>14</title>
<path fill="#f7fef8" stroke="black" d="M2811,-83C2811,-83 2442,-83 2442,-83 2436,-83 2430,-77 2430,-71 2430,-71 2430,-12 2430,-12 2430,-6 2436,0 2442,0 2442,0 2811,0 2811,0 2817,0 2823,-6 2823,-12 2823,-12 2823,-71 2823,-71 2823,-77 2817,-83 2811,-83"/>
<text text-anchor="middle" x="2626.5" y="-67.8" font-family="Helvetica,sans-Serif" font-size="14.00">entropy = 2.56</text>
<text text-anchor="middle" x="2626.5" y="-52.8" font-family="Helvetica,sans-Serif" font-size="14.00">samples = 26654</text>
<text text-anchor="middle" x="2626.5" y="-37.8" font-family="Helvetica,sans-Serif" font-size="14.00">value = [38, 445, 3052, 8311, 7587, 2770, 2617, 1000, 345</text>
<text text-anchor="middle" x="2626.5" y="-22.8" font-family="Helvetica,sans-Serif" font-size="14.00">162, 327]</text>
<text text-anchor="middle" x="2626.5" y="-7.8" font-family="Helvetica,sans-Serif" font-size="14.00">class = {&#45;30, &#45;15}</text>
</g>
<!-- 13&#45;&gt;14 -->
<g id="edge14" class="edge">
<title>13&#45;&gt;14</title>
<path fill="none" stroke="black" d="M2638.77,-118.87C2637.42,-110.5 2636.02,-101.77 2634.67,-93.33"/>
<polygon fill="black" stroke="black" points="2638.08,-92.55 2633.04,-83.23 2631.17,-93.66 2638.08,-92.55"/>
</g>
<!-- 15 -->
<g id="node16" class="node">
<title>15</title>
<path fill="#fefffe" stroke="black" d="M3230,-83C3230,-83 2853,-83 2853,-83 2847,-83 2841,-77 2841,-71 2841,-71 2841,-12 2841,-12 2841,-6 2847,0 2853,0 2853,0 3230,0 3230,0 3236,0 3242,-6 3242,-12 3242,-12 3242,-71 3242,-71 3242,-77 3236,-83 3230,-83"/>
<text text-anchor="middle" x="3041.5" y="-67.8" font-family="Helvetica,sans-Serif" font-size="14.00">entropy = 2.775</text>
<text text-anchor="middle" x="3041.5" y="-52.8" font-family="Helvetica,sans-Serif" font-size="14.00">samples = 10421</text>
<text text-anchor="middle" x="3041.5" y="-37.8" font-family="Helvetica,sans-Serif" font-size="14.00">value = [9, 126, 868, 2720, 2775, 1134, 1347, 628, 243, 160</text>
<text text-anchor="middle" x="3041.5" y="-22.8" font-family="Helvetica,sans-Serif" font-size="14.00">411]</text>
<text text-anchor="middle" x="3041.5" y="-7.8" font-family="Helvetica,sans-Serif" font-size="14.00">class = {&#45;15, &#45;3}</text>
</g>
<!-- 13&#45;&gt;15 -->
<g id="edge15" class="edge">
<title>13&#45;&gt;15</title>
<path fill="none" stroke="black" d="M2798.93,-118.95C2833.14,-108.17 2869.24,-96.79 2902.85,-86.2"/>
<polygon fill="black" stroke="black" points="2904.24,-89.43 2912.72,-83.09 2902.13,-82.76 2904.24,-89.43"/>
</g>
<!-- 17 -->
<g id="node18" class="node">
<title>17</title>
<path fill="#f6fefb" stroke="black" d="M4201,-351C4201,-351 3832,-351 3832,-351 3826,-351 3820,-345 3820,-339 3820,-339 3820,-265 3820,-265 3820,-259 3826,-253 3832,-253 3832,-253 4201,-253 4201,-253 4207,-253 4213,-259 4213,-265 4213,-265 4213,-339 4213,-339 4213,-345 4207,-351 4201,-351"/>
<text text-anchor="middle" x="4016.5" y="-335.8" font-family="Helvetica,sans-Serif" font-size="14.00">OriginAirportID &lt;= 3.984</text>
<text text-anchor="middle" x="4016.5" y="-320.8" font-family="Helvetica,sans-Serif" font-size="14.00">entropy = 2.519</text>
<text text-anchor="middle" x="4016.5" y="-305.8" font-family="Helvetica,sans-Serif" font-size="14.00">samples = 25286</text>
<text text-anchor="middle" x="4016.5" y="-290.8" font-family="Helvetica,sans-Serif" font-size="14.00">value = [16, 157, 1304, 7554, 8316, 2994, 2444, 1128, 444</text>
<text text-anchor="middle" x="4016.5" y="-275.8" font-family="Helvetica,sans-Serif" font-size="14.00">237, 692]</text>
<text text-anchor="middle" x="4016.5" y="-260.8" font-family="Helvetica,sans-Serif" font-size="14.00">class = {&#45;15, &#45;3}</text>
</g>
<!-- 16&#45;&gt;17 -->
<g id="edge17" class="edge">
<title>16&#45;&gt;17</title>
<path fill="none" stroke="black" d="M4016.5,-386.97C4016.5,-378.69 4016.5,-370 4016.5,-361.48"/>
<polygon fill="black" stroke="black" points="4020,-361.21 4016.5,-351.21 4013,-361.21 4020,-361.21"/>
</g>
<!-- 24 -->
<g id="node25" class="node">
<title>24</title>
<path fill="#e7fcf3" stroke="black" d="M5369,-351C5369,-351 4992,-351 4992,-351 4986,-351 4980,-345 4980,-339 4980,-339 4980,-265 4980,-265 4980,-259 4986,-253 4992,-253 4992,-253 5369,-253 5369,-253 5375,-253 5381,-259 5381,-265 5381,-265 5381,-339 5381,-339 5381,-345 5375,-351 5369,-351"/>
<text text-anchor="middle" x="5180.5" y="-335.8" font-family="Helvetica,sans-Serif" font-size="14.00">DestAirportID &lt;= 4.185</text>
<text text-anchor="middle" x="5180.5" y="-320.8" font-family="Helvetica,sans-Serif" font-size="14.00">entropy = 2.756</text>
<text text-anchor="middle" x="5180.5" y="-305.8" font-family="Helvetica,sans-Serif" font-size="14.00">samples = 38168</text>
<text text-anchor="middle" x="5180.5" y="-290.8" font-family="Helvetica,sans-Serif" font-size="14.00">value = [13, 94, 1009, 7836, 11539, 5399, 4746, 2796, 1387</text>
<text text-anchor="middle" x="5180.5" y="-275.8" font-family="Helvetica,sans-Serif" font-size="14.00">805, 2544]</text>
<text text-anchor="middle" x="5180.5" y="-260.8" font-family="Helvetica,sans-Serif" font-size="14.00">class = {&#45;15, &#45;3}</text>
</g>
<!-- 16&#45;&gt;24 -->
<g id="edge24" class="edge">
<title>16&#45;&gt;24</title>
<path fill="none" stroke="black" d="M4225.61,-411.29C4436.09,-387.42 4758.96,-350.8 4969.95,-326.88"/>
<polygon fill="black" stroke="black" points="4970.37,-330.35 4979.91,-325.75 4969.58,-323.4 4970.37,-330.35"/>
</g>
<!-- 18 -->
<g id="node19" class="node">
<title>18</title>
<path fill="#e1fbe3" stroke="black" d="M3989.5,-217C3989.5,-217 3645.5,-217 3645.5,-217 3639.5,-217 3633.5,-211 3633.5,-205 3633.5,-205 3633.5,-131 3633.5,-131 3633.5,-125 3639.5,-119 3645.5,-119 3645.5,-119 3989.5,-119 3989.5,-119 3995.5,-119 4001.5,-125 4001.5,-131 4001.5,-131 4001.5,-205 4001.5,-205 4001.5,-211 3995.5,-217 3989.5,-217"/>
<text text-anchor="middle" x="3817.5" y="-201.8" font-family="Helvetica,sans-Serif" font-size="14.00">CRSElapsedTime &lt;= 266.5</text>
<text text-anchor="middle" x="3817.5" y="-186.8" font-family="Helvetica,sans-Serif" font-size="14.00">entropy = 2.52</text>
<text text-anchor="middle" x="3817.5" y="-171.8" font-family="Helvetica,sans-Serif" font-size="14.00">samples = 4218</text>
<text text-anchor="middle" x="3817.5" y="-156.8" font-family="Helvetica,sans-Serif" font-size="14.00">value = [10, 71, 502, 1562, 1096, 367, 274, 138, 53, 37</text>
<text text-anchor="middle" x="3817.5" y="-141.8" font-family="Helvetica,sans-Serif" font-size="14.00">108]</text>
<text text-anchor="middle" x="3817.5" y="-126.8" font-family="Helvetica,sans-Serif" font-size="14.00">class = {&#45;30, &#45;15}</text>
</g>
<!-- 17&#45;&gt;18 -->
<g id="edge18" class="edge">
<title>17&#45;&gt;18</title>
<path fill="none" stroke="black" d="M3944.09,-252.97C3929.42,-243.24 3913.89,-232.93 3898.92,-223.01"/>
<polygon fill="black" stroke="black" points="3900.45,-219.82 3890.19,-217.21 3896.58,-225.66 3900.45,-219.82"/>
</g>
<!-- 21 -->
<g id="node22" class="node">
<title>21</title>
<path fill="#effdf7" stroke="black" d="M4399.5,-217C4399.5,-217 4031.5,-217 4031.5,-217 4025.5,-217 4019.5,-211 4019.5,-205 4019.5,-205 4019.5,-131 4019.5,-131 4019.5,-125 4025.5,-119 4031.5,-119 4031.5,-119 4399.5,-119 4399.5,-119 4405.5,-119 4411.5,-125 4411.5,-131 4411.5,-131 4411.5,-205 4411.5,-205 4411.5,-211 4405.5,-217 4399.5,-217"/>
<text text-anchor="middle" x="4215.5" y="-201.8" font-family="Helvetica,sans-Serif" font-size="14.00">CRSElapsedTime &lt;= 162.5</text>
<text text-anchor="middle" x="4215.5" y="-186.8" font-family="Helvetica,sans-Serif" font-size="14.00">entropy = 2.494</text>
<text text-anchor="middle" x="4215.5" y="-171.8" font-family="Helvetica,sans-Serif" font-size="14.00">samples = 21068</text>
<text text-anchor="middle" x="4215.5" y="-156.8" font-family="Helvetica,sans-Serif" font-size="14.00">value = [6, 86, 802, 5992, 7220, 2627, 2170, 990, 391, 200</text>
<text text-anchor="middle" x="4215.5" y="-141.8" font-family="Helvetica,sans-Serif" font-size="14.00">584]</text>
<text text-anchor="middle" x="4215.5" y="-126.8" font-family="Helvetica,sans-Serif" font-size="14.00">class = {&#45;15, &#45;3}</text>
</g>
<!-- 17&#45;&gt;21 -->
<g id="edge21" class="edge">
<title>17&#45;&gt;21</title>
<path fill="none" stroke="black" d="M4088.91,-252.97C4103.58,-243.24 4119.11,-232.93 4134.08,-223.01"/>
<polygon fill="black" stroke="black" points="4136.42,-225.66 4142.81,-217.21 4132.55,-219.82 4136.42,-225.66"/>
</g>
<!-- 19 -->
<g id="node20" class="node">
<title>19</title>
<path fill="#e0fbe2" stroke="black" d="M3635,-75.5C3635,-75.5 3272,-75.5 3272,-75.5 3266,-75.5 3260,-69.5 3260,-63.5 3260,-63.5 3260,-19.5 3260,-19.5 3260,-13.5 3266,-7.5 3272,-7.5 3272,-7.5 3635,-7.5 3635,-7.5 3641,-7.5 3647,-13.5 3647,-19.5 3647,-19.5 3647,-63.5 3647,-63.5 3647,-69.5 3641,-75.5 3635,-75.5"/>
<text text-anchor="middle" x="3453.5" y="-60.3" font-family="Helvetica,sans-Serif" font-size="14.00">entropy = 2.445</text>
<text text-anchor="middle" x="3453.5" y="-45.3" font-family="Helvetica,sans-Serif" font-size="14.00">samples = 3625</text>
<text text-anchor="middle" x="3453.5" y="-30.3" font-family="Helvetica,sans-Serif" font-size="14.00">value = [0, 23, 373, 1388, 977, 326, 233, 121, 50, 32, 102]</text>
<text text-anchor="middle" x="3453.5" y="-15.3" font-family="Helvetica,sans-Serif" font-size="14.00">class = {&#45;30, &#45;15}</text>
</g>
<!-- 18&#45;&gt;19 -->
<g id="edge19" class="edge">
<title>18&#45;&gt;19</title>
<path fill="none" stroke="black" d="M3677.03,-118.95C3638.07,-105.63 3596.44,-91.39 3559.79,-78.85"/>
<polygon fill="black" stroke="black" points="3560.68,-75.46 3550.09,-75.54 3558.42,-82.08 3560.68,-75.46"/>
</g>
<!-- 20 -->
<g id="node21" class="node">
<title>20</title>
<path fill="#ecfced" stroke="black" d="M3982,-75.5C3982,-75.5 3677,-75.5 3677,-75.5 3671,-75.5 3665,-69.5 3665,-63.5 3665,-63.5 3665,-19.5 3665,-19.5 3665,-13.5 3671,-7.5 3677,-7.5 3677,-7.5 3982,-7.5 3982,-7.5 3988,-7.5 3994,-13.5 3994,-19.5 3994,-19.5 3994,-63.5 3994,-63.5 3994,-69.5 3988,-75.5 3982,-75.5"/>
<text text-anchor="middle" x="3829.5" y="-60.3" font-family="Helvetica,sans-Serif" font-size="14.00">entropy = 2.699</text>
<text text-anchor="middle" x="3829.5" y="-45.3" font-family="Helvetica,sans-Serif" font-size="14.00">samples = 593</text>
<text text-anchor="middle" x="3829.5" y="-30.3" font-family="Helvetica,sans-Serif" font-size="14.00">value = [10, 48, 129, 174, 119, 41, 41, 17, 3, 5, 6]</text>
<text text-anchor="middle" x="3829.5" y="-15.3" font-family="Helvetica,sans-Serif" font-size="14.00">class = {&#45;30, &#45;15}</text>
</g>
<!-- 18&#45;&gt;20 -->
<g id="edge20" class="edge">
<title>18&#45;&gt;20</title>
<path fill="none" stroke="black" d="M3822.14,-118.87C3823.18,-108.09 3824.27,-96.71 3825.29,-86.13"/>
<polygon fill="black" stroke="black" points="3828.81,-86.15 3826.28,-75.86 3821.84,-85.48 3828.81,-86.15"/>
</g>
<!-- 22 -->
<g id="node23" class="node">
<title>22</title>
<path fill="#e8fcf4" stroke="black" d="M4384.5,-83C4384.5,-83 4024.5,-83 4024.5,-83 4018.5,-83 4012.5,-77 4012.5,-71 4012.5,-71 4012.5,-12 4012.5,-12 4012.5,-6 4018.5,0 4024.5,0 4024.5,0 4384.5,0 4384.5,0 4390.5,0 4396.5,-6 4396.5,-12 4396.5,-12 4396.5,-71 4396.5,-71 4396.5,-77 4390.5,-83 4384.5,-83"/>
<text text-anchor="middle" x="4204.5" y="-67.8" font-family="Helvetica,sans-Serif" font-size="14.00">entropy = 2.399</text>
<text text-anchor="middle" x="4204.5" y="-52.8" font-family="Helvetica,sans-Serif" font-size="14.00">samples = 14609</text>
<text text-anchor="middle" x="4204.5" y="-37.8" font-family="Helvetica,sans-Serif" font-size="14.00">value = [0, 6, 356, 4138, 5340, 1842, 1488, 655, 253, 130</text>
<text text-anchor="middle" x="4204.5" y="-22.8" font-family="Helvetica,sans-Serif" font-size="14.00">401]</text>
<text text-anchor="middle" x="4204.5" y="-7.8" font-family="Helvetica,sans-Serif" font-size="14.00">class = {&#45;15, &#45;3}</text>
</g>
<!-- 21&#45;&gt;22 -->
<g id="edge22" class="edge">
<title>21&#45;&gt;22</title>
<path fill="none" stroke="black" d="M4211.25,-118.87C4210.51,-110.5 4209.74,-101.77 4208.99,-93.33"/>
<polygon fill="black" stroke="black" points="4212.47,-92.88 4208.1,-83.23 4205.49,-93.5 4212.47,-92.88"/>
</g>
<!-- 23 -->
<g id="node24" class="node">
<title>23</title>
<path fill="#fefffe" stroke="black" d="M4770.5,-83C4770.5,-83 4426.5,-83 4426.5,-83 4420.5,-83 4414.5,-77 4414.5,-71 4414.5,-71 4414.5,-12 4414.5,-12 4414.5,-6 4420.5,0 4426.5,0 4426.5,0 4770.5,0 4770.5,0 4776.5,0 4782.5,-6 4782.5,-12 4782.5,-12 4782.5,-71 4782.5,-71 4782.5,-77 4776.5,-83 4770.5,-83"/>
<text text-anchor="middle" x="4598.5" y="-67.8" font-family="Helvetica,sans-Serif" font-size="14.00">entropy = 2.658</text>
<text text-anchor="middle" x="4598.5" y="-52.8" font-family="Helvetica,sans-Serif" font-size="14.00">samples = 6459</text>
<text text-anchor="middle" x="4598.5" y="-37.8" font-family="Helvetica,sans-Serif" font-size="14.00">value = [6, 80, 446, 1854, 1880, 785, 682, 335, 138, 70</text>
<text text-anchor="middle" x="4598.5" y="-22.8" font-family="Helvetica,sans-Serif" font-size="14.00">183]</text>
<text text-anchor="middle" x="4598.5" y="-7.8" font-family="Helvetica,sans-Serif" font-size="14.00">class = {&#45;15, &#45;3}</text>
</g>
<!-- 21&#45;&gt;23 -->
<g id="edge23" class="edge">
<title>21&#45;&gt;23</title>
<path fill="none" stroke="black" d="M4363.3,-118.95C4396.47,-108.17 4431.48,-96.79 4464.06,-86.2"/>
<polygon fill="black" stroke="black" points="4465.21,-89.51 4473.63,-83.09 4463.04,-82.85 4465.21,-89.51"/>
</g>
<!-- 25 -->
<g id="node26" class="node">
<title>25</title>
<path fill="#ecfcf6" stroke="black" d="M5373,-217C5373,-217 4988,-217 4988,-217 4982,-217 4976,-211 4976,-205 4976,-205 4976,-131 4976,-131 4976,-125 4982,-119 4988,-119 4988,-119 5373,-119 5373,-119 5379,-119 5385,-125 5385,-131 5385,-131 5385,-205 5385,-205 5385,-211 5379,-217 5373,-217"/>
<text text-anchor="middle" x="5180.5" y="-201.8" font-family="Helvetica,sans-Serif" font-size="14.00">CRSElapsedTime &lt;= 164.5</text>
<text text-anchor="middle" x="5180.5" y="-186.8" font-family="Helvetica,sans-Serif" font-size="14.00">entropy = 2.666</text>
<text text-anchor="middle" x="5180.5" y="-171.8" font-family="Helvetica,sans-Serif" font-size="14.00">samples = 17256</text>
<text text-anchor="middle" x="5180.5" y="-156.8" font-family="Helvetica,sans-Serif" font-size="14.00">value = [12, 68, 605, 4275, 5525, 2216, 1873, 1023, 473, 292</text>
<text text-anchor="middle" x="5180.5" y="-141.8" font-family="Helvetica,sans-Serif" font-size="14.00">894]</text>
<text text-anchor="middle" x="5180.5" y="-126.8" font-family="Helvetica,sans-Serif" font-size="14.00">class = {&#45;15, &#45;3}</text>
</g>
<!-- 24&#45;&gt;25 -->
<g id="edge25" class="edge">
<title>24&#45;&gt;25</title>
<path fill="none" stroke="black" d="M5180.5,-252.97C5180.5,-244.69 5180.5,-236 5180.5,-227.48"/>
<polygon fill="black" stroke="black" points="5184,-227.21 5180.5,-217.21 5177,-227.21 5184,-227.21"/>
</g>
<!-- 28 -->
<g id="node29" class="node">
<title>28</title>
<path fill="#e3fbf1" stroke="black" d="M5981,-217C5981,-217 5604,-217 5604,-217 5598,-217 5592,-211 5592,-205 5592,-205 5592,-131 5592,-131 5592,-125 5598,-119 5604,-119 5604,-119 5981,-119 5981,-119 5987,-119 5993,-125 5993,-131 5993,-131 5993,-205 5993,-205 5993,-211 5987,-217 5981,-217"/>
<text text-anchor="middle" x="5792.5" y="-201.8" font-family="Helvetica,sans-Serif" font-size="14.00">DayofMonth &lt;= 4.766</text>
<text text-anchor="middle" x="5792.5" y="-186.8" font-family="Helvetica,sans-Serif" font-size="14.00">entropy = 2.801</text>
<text text-anchor="middle" x="5792.5" y="-171.8" font-family="Helvetica,sans-Serif" font-size="14.00">samples = 20912</text>
<text text-anchor="middle" x="5792.5" y="-156.8" font-family="Helvetica,sans-Serif" font-size="14.00">value = [1, 26, 404, 3561, 6014, 3183, 2873, 1773, 914, 513</text>
<text text-anchor="middle" x="5792.5" y="-141.8" font-family="Helvetica,sans-Serif" font-size="14.00">1650]</text>
<text text-anchor="middle" x="5792.5" y="-126.8" font-family="Helvetica,sans-Serif" font-size="14.00">class = {&#45;15, &#45;3}</text>
</g>
<!-- 24&#45;&gt;28 -->
<g id="edge28" class="edge">
<title>24&#45;&gt;28</title>
<path fill="none" stroke="black" d="M5381.32,-257.69C5445.62,-243.82 5516.99,-228.42 5581.97,-214.41"/>
<polygon fill="black" stroke="black" points="5582.88,-217.79 5591.92,-212.26 5581.41,-210.95 5582.88,-217.79"/>
</g>
<!-- 26 -->
<g id="node27" class="node">
<title>26</title>
<path fill="#e7fcf3" stroke="black" d="M5172.5,-83C5172.5,-83 4812.5,-83 4812.5,-83 4806.5,-83 4800.5,-77 4800.5,-71 4800.5,-71 4800.5,-12 4800.5,-12 4800.5,-6 4806.5,0 4812.5,0 4812.5,0 5172.5,0 5172.5,0 5178.5,0 5184.5,-6 5184.5,-12 5184.5,-12 5184.5,-71 5184.5,-71 5184.5,-77 5178.5,-83 5172.5,-83"/>
<text text-anchor="middle" x="4992.5" y="-67.8" font-family="Helvetica,sans-Serif" font-size="14.00">entropy = 2.562</text>
<text text-anchor="middle" x="4992.5" y="-52.8" font-family="Helvetica,sans-Serif" font-size="14.00">samples = 11999</text>
<text text-anchor="middle" x="4992.5" y="-37.8" font-family="Helvetica,sans-Serif" font-size="14.00">value = [0, 4, 248, 3054, 4120, 1493, 1247, 681, 332, 199</text>
<text text-anchor="middle" x="4992.5" y="-22.8" font-family="Helvetica,sans-Serif" font-size="14.00">621]</text>
<text text-anchor="middle" x="4992.5" y="-7.8" font-family="Helvetica,sans-Serif" font-size="14.00">class = {&#45;15, &#45;3}</text>
</g>
<!-- 25&#45;&gt;26 -->
<g id="edge26" class="edge">
<title>25&#45;&gt;26</title>
<path fill="none" stroke="black" d="M5107.81,-118.87C5092.87,-108.97 5077.17,-98.57 5062.33,-88.74"/>
<polygon fill="black" stroke="black" points="5063.98,-85.64 5053.71,-83.03 5060.11,-91.47 5063.98,-85.64"/>
</g>
<!-- 27 -->
<g id="node28" class="node">
<title>27</title>
<path fill="#f6fefb" stroke="black" d="M5566.5,-83C5566.5,-83 5214.5,-83 5214.5,-83 5208.5,-83 5202.5,-77 5202.5,-71 5202.5,-71 5202.5,-12 5202.5,-12 5202.5,-6 5208.5,0 5214.5,0 5214.5,0 5566.5,0 5566.5,0 5572.5,0 5578.5,-6 5578.5,-12 5578.5,-12 5578.5,-71 5578.5,-71 5578.5,-77 5572.5,-83 5566.5,-83"/>
<text text-anchor="middle" x="5390.5" y="-67.8" font-family="Helvetica,sans-Serif" font-size="14.00">entropy = 2.839</text>
<text text-anchor="middle" x="5390.5" y="-52.8" font-family="Helvetica,sans-Serif" font-size="14.00">samples = 5257</text>
<text text-anchor="middle" x="5390.5" y="-37.8" font-family="Helvetica,sans-Serif" font-size="14.00">value = [12, 64, 357, 1221, 1405, 723, 626, 342, 141, 93</text>
<text text-anchor="middle" x="5390.5" y="-22.8" font-family="Helvetica,sans-Serif" font-size="14.00">273]</text>
<text text-anchor="middle" x="5390.5" y="-7.8" font-family="Helvetica,sans-Serif" font-size="14.00">class = {&#45;15, &#45;3}</text>
</g>
<!-- 25&#45;&gt;27 -->
<g id="edge27" class="edge">
<title>25&#45;&gt;27</title>
<path fill="none" stroke="black" d="M5261.69,-118.87C5278.69,-108.78 5296.58,-98.18 5313.43,-88.19"/>
<polygon fill="black" stroke="black" points="5315.31,-91.14 5322.13,-83.03 5311.75,-85.12 5315.31,-91.14"/>
</g>
<!-- 29 -->
<g id="node30" class="node">
<title>29</title>
<path fill="#e5fcf2" stroke="black" d="M5976.5,-83C5976.5,-83 5608.5,-83 5608.5,-83 5602.5,-83 5596.5,-77 5596.5,-71 5596.5,-71 5596.5,-12 5596.5,-12 5596.5,-6 5602.5,0 5608.5,0 5608.5,0 5976.5,0 5976.5,0 5982.5,0 5988.5,-6 5988.5,-12 5988.5,-12 5988.5,-71 5988.5,-71 5988.5,-77 5982.5,-83 5976.5,-83"/>
<text text-anchor="middle" x="5792.5" y="-67.8" font-family="Helvetica,sans-Serif" font-size="14.00">entropy = 2.766</text>
<text text-anchor="middle" x="5792.5" y="-52.8" font-family="Helvetica,sans-Serif" font-size="14.00">samples = 12970</text>
<text text-anchor="middle" x="5792.5" y="-37.8" font-family="Helvetica,sans-Serif" font-size="14.00">value = [0, 20, 290, 2456, 3823, 2124, 1487, 876, 476, 309</text>
<text text-anchor="middle" x="5792.5" y="-22.8" font-family="Helvetica,sans-Serif" font-size="14.00">1109]</text>
<text text-anchor="middle" x="5792.5" y="-7.8" font-family="Helvetica,sans-Serif" font-size="14.00">class = {&#45;15, &#45;3}</text>
</g>
<!-- 28&#45;&gt;29 -->
<g id="edge29" class="edge">
<title>28&#45;&gt;29</title>
<path fill="none" stroke="black" d="M5792.5,-118.87C5792.5,-110.5 5792.5,-101.77 5792.5,-93.33"/>
<polygon fill="black" stroke="black" points="5796,-93.23 5792.5,-83.23 5789,-93.23 5796,-93.23"/>
</g>
<!-- 30 -->
<g id="node31" class="node">
<title>30</title>
<path fill="#e7fcf3" stroke="black" d="M6378.5,-83C6378.5,-83 6018.5,-83 6018.5,-83 6012.5,-83 6006.5,-77 6006.5,-71 6006.5,-71 6006.5,-12 6006.5,-12 6006.5,-6 6012.5,0 6018.5,0 6018.5,0 6378.5,0 6378.5,0 6384.5,0 6390.5,-6 6390.5,-12 6390.5,-12 6390.5,-71 6390.5,-71 6390.5,-77 6384.5,-83 6378.5,-83"/>
<text text-anchor="middle" x="6198.5" y="-67.8" font-family="Helvetica,sans-Serif" font-size="14.00">entropy = 2.819</text>
<text text-anchor="middle" x="6198.5" y="-52.8" font-family="Helvetica,sans-Serif" font-size="14.00">samples = 7942</text>
<text text-anchor="middle" x="6198.5" y="-37.8" font-family="Helvetica,sans-Serif" font-size="14.00">value = [1, 6, 114, 1105, 2191, 1059, 1386, 897, 438, 204</text>
<text text-anchor="middle" x="6198.5" y="-22.8" font-family="Helvetica,sans-Serif" font-size="14.00">541]</text>
<text text-anchor="middle" x="6198.5" y="-7.8" font-family="Helvetica,sans-Serif" font-size="14.00">class = {&#45;15, &#45;3}</text>
</g>
<!-- 28&#45;&gt;30 -->
<g id="edge30" class="edge">
<title>28&#45;&gt;30</title>
<path fill="none" stroke="black" d="M5949.18,-118.95C5984.48,-108.13 6021.76,-96.7 6056.43,-86.07"/>
<polygon fill="black" stroke="black" points="6057.6,-89.37 6066.14,-83.09 6055.55,-82.68 6057.6,-89.37"/>
</g>
<!-- \n -->
<g id="node32" class="node">
<title>\n</title>
<path fill="black" stroke="black" d="M3490.5,-588C3490.5,-588 3460.5,-588 3460.5,-588 3454.5,-588 3448.5,-582 3448.5,-576 3448.5,-576 3448.5,-564 3448.5,-564 3448.5,-558 3454.5,-552 3460.5,-552 3460.5,-552 3490.5,-552 3490.5,-552 3496.5,-552 3502.5,-558 3502.5,-564 3502.5,-564 3502.5,-576 3502.5,-576 3502.5,-582 3496.5,-588 3490.5,-588"/>
</g>
</g>
</svg>
